<mxfile modified="2022-10-11T13:54:05.143Z" host="app.diagrams.net" agent="5.0 (Windows NT 10.0; Win64; x64) AppleWebKit/537.36 (KHTML, like Gecko) Chrome/104.0.5112.102 Safari/537.36 OPR/90.0.4480.117 (Edition std-1)" etag="4OnlZr66t0kIjAfP24tZ" version="20.4.0" type="github">
  <diagram id="Ht1M8jgEwFfnCIfOTk4-" name="Page-1">
    <mxGraphModel dx="1625" dy="889" grid="1" gridSize="10" guides="1" tooltips="1" connect="1" arrows="1" fold="1" page="1" pageScale="1" pageWidth="1654" pageHeight="1169" math="0" shadow="0">
      <root>
        <mxCell id="0" />
        <mxCell id="1" parent="0" />
        <mxCell id="UEzPUAAOIrF-is8g5C7q-123" value="" style="outlineConnect=0;fontColor=#232F3E;gradientColor=none;gradientDirection=north;fillColor=#F34482;strokeColor=none;dashed=0;verticalLabelPosition=bottom;verticalAlign=top;align=center;html=1;fontSize=12;fontStyle=0;aspect=fixed;shape=mxgraph.aws4.cloudwatch;labelBackgroundColor=#ffffff;" parent="1" vertex="1">
          <mxGeometry x="700" y="480" width="78" height="78" as="geometry" />
        </mxCell>
        <mxCell id="O3rHJ_TYyN_P90yvB4hT-4" value="" style="endArrow=none;html=1;rounded=0;" edge="1" parent="1">
          <mxGeometry width="50" height="50" relative="1" as="geometry">
            <mxPoint x="545" y="520" as="sourcePoint" />
            <mxPoint x="945" y="520" as="targetPoint" />
          </mxGeometry>
        </mxCell>
        <mxCell id="O3rHJ_TYyN_P90yvB4hT-20" value="Navegador/ Pagina&lt;br&gt;" style="edgeLabel;html=1;align=center;verticalAlign=middle;resizable=0;points=[];" vertex="1" connectable="0" parent="O3rHJ_TYyN_P90yvB4hT-4">
          <mxGeometry x="-0.08" y="4" relative="1" as="geometry">
            <mxPoint x="10" y="42" as="offset" />
          </mxGeometry>
        </mxCell>
        <mxCell id="O3rHJ_TYyN_P90yvB4hT-7" style="edgeStyle=orthogonalEdgeStyle;rounded=0;orthogonalLoop=1;jettySize=auto;html=1;" edge="1" parent="1" source="O3rHJ_TYyN_P90yvB4hT-5" target="O3rHJ_TYyN_P90yvB4hT-6">
          <mxGeometry relative="1" as="geometry">
            <Array as="points">
              <mxPoint x="975" y="620" />
              <mxPoint x="975" y="620" />
            </Array>
          </mxGeometry>
        </mxCell>
        <mxCell id="O3rHJ_TYyN_P90yvB4hT-5" value="PC&lt;br&gt;" style="shape=mxgraph.cisco.computers_and_peripherals.pc;html=1;pointerEvents=1;dashed=0;fillColor=#036897;strokeColor=#ffffff;strokeWidth=2;verticalLabelPosition=bottom;verticalAlign=top;align=center;outlineConnect=0;" vertex="1" parent="1">
          <mxGeometry x="945" y="488" width="78" height="70" as="geometry" />
        </mxCell>
        <mxCell id="O3rHJ_TYyN_P90yvB4hT-9" style="edgeStyle=orthogonalEdgeStyle;rounded=0;orthogonalLoop=1;jettySize=auto;html=1;" edge="1" parent="1" source="O3rHJ_TYyN_P90yvB4hT-6" target="O3rHJ_TYyN_P90yvB4hT-8">
          <mxGeometry relative="1" as="geometry">
            <Array as="points">
              <mxPoint x="975" y="760" />
              <mxPoint x="975" y="760" />
            </Array>
          </mxGeometry>
        </mxCell>
        <mxCell id="O3rHJ_TYyN_P90yvB4hT-6" value="CLOUD&lt;br&gt;" style="image;html=1;image=img/lib/clip_art/networking/Cloud_Computer_128x128.png" vertex="1" parent="1">
          <mxGeometry x="945" y="640" width="80" height="80" as="geometry" />
        </mxCell>
        <mxCell id="O3rHJ_TYyN_P90yvB4hT-17" style="edgeStyle=orthogonalEdgeStyle;rounded=0;orthogonalLoop=1;jettySize=auto;html=1;entryX=0.5;entryY=0;entryDx=0;entryDy=0;" edge="1" parent="1" source="O3rHJ_TYyN_P90yvB4hT-8" target="O3rHJ_TYyN_P90yvB4hT-14">
          <mxGeometry relative="1" as="geometry" />
        </mxCell>
        <mxCell id="O3rHJ_TYyN_P90yvB4hT-18" style="edgeStyle=orthogonalEdgeStyle;rounded=0;orthogonalLoop=1;jettySize=auto;html=1;entryX=0.5;entryY=0;entryDx=0;entryDy=0;" edge="1" parent="1" source="O3rHJ_TYyN_P90yvB4hT-8" target="O3rHJ_TYyN_P90yvB4hT-15">
          <mxGeometry relative="1" as="geometry">
            <Array as="points">
              <mxPoint x="975" y="900" />
              <mxPoint x="975" y="900" />
            </Array>
          </mxGeometry>
        </mxCell>
        <mxCell id="O3rHJ_TYyN_P90yvB4hT-19" style="edgeStyle=orthogonalEdgeStyle;rounded=0;orthogonalLoop=1;jettySize=auto;html=1;entryX=0.5;entryY=0;entryDx=0;entryDy=0;" edge="1" parent="1" source="O3rHJ_TYyN_P90yvB4hT-8" target="O3rHJ_TYyN_P90yvB4hT-16">
          <mxGeometry relative="1" as="geometry" />
        </mxCell>
        <mxCell id="O3rHJ_TYyN_P90yvB4hT-8" value="ROUTER&lt;br&gt;" style="image;html=1;image=img/lib/clip_art/networking/Wireless_Router_N_128x128.png" vertex="1" parent="1">
          <mxGeometry x="945" y="787" width="80" height="80" as="geometry" />
        </mxCell>
        <mxCell id="O3rHJ_TYyN_P90yvB4hT-14" value="Camara Ip A&lt;br&gt;" style="image;html=1;image=img/lib/clip_art/networking/Ip_Camera_128x128.png" vertex="1" parent="1">
          <mxGeometry x="735" y="960" width="80" height="80" as="geometry" />
        </mxCell>
        <mxCell id="O3rHJ_TYyN_P90yvB4hT-15" value="Camara Ip B" style="image;html=1;image=img/lib/clip_art/networking/Ip_Camera_128x128.png" vertex="1" parent="1">
          <mxGeometry x="935" y="960" width="80" height="80" as="geometry" />
        </mxCell>
        <mxCell id="O3rHJ_TYyN_P90yvB4hT-16" value="Camara Ip C&lt;br&gt;" style="image;html=1;image=img/lib/clip_art/networking/Ip_Camera_128x128.png" vertex="1" parent="1">
          <mxGeometry x="1135" y="960" width="80" height="80" as="geometry" />
        </mxCell>
        <mxCell id="UEzPUAAOIrF-is8g5C7q-113" value="Lambda" style="outlineConnect=0;fontColor=#232F3E;gradientColor=#F78E04;gradientDirection=north;fillColor=#D05C17;strokeColor=#ffffff;dashed=0;verticalLabelPosition=bottom;verticalAlign=top;align=center;html=1;fontSize=12;fontStyle=0;aspect=fixed;shape=mxgraph.aws4.resourceIcon;resIcon=mxgraph.aws4.lambda;labelBackgroundColor=#ffffff;spacingTop=3;" parent="1" vertex="1">
          <mxGeometry x="104.5" y="394.5" width="78" height="78" as="geometry" />
        </mxCell>
        <mxCell id="UEzPUAAOIrF-is8g5C7q-130" style="edgeStyle=orthogonalEdgeStyle;rounded=0;orthogonalLoop=1;jettySize=auto;html=1;startArrow=open;startFill=0;endArrow=open;endFill=0;strokeWidth=2;strokeColor=#808080;" parent="1" source="O3rHJ_TYyN_P90yvB4hT-25" edge="1">
          <mxGeometry relative="1" as="geometry">
            <Array as="points">
              <mxPoint x="510" y="400" />
              <mxPoint x="240" y="400" />
              <mxPoint x="240" y="275" />
            </Array>
            <mxPoint x="510" y="480" as="sourcePoint" />
            <mxPoint x="180" y="275" as="targetPoint" />
          </mxGeometry>
        </mxCell>
        <mxCell id="O3rHJ_TYyN_P90yvB4hT-2" style="edgeStyle=orthogonalEdgeStyle;rounded=0;orthogonalLoop=1;jettySize=auto;html=1;startArrow=open;startFill=0;endArrow=open;endFill=0;strokeWidth=2;strokeColor=#808080;" edge="1" parent="1" target="UEzPUAAOIrF-is8g5C7q-116">
          <mxGeometry relative="1" as="geometry">
            <Array as="points">
              <mxPoint x="510" y="590" />
              <mxPoint x="510" y="640" />
              <mxPoint x="240" y="640" />
              <mxPoint x="240" y="772" />
            </Array>
            <mxPoint x="510" y="580" as="sourcePoint" />
            <mxPoint x="220" y="772" as="targetPoint" />
          </mxGeometry>
        </mxCell>
        <mxCell id="O3rHJ_TYyN_P90yvB4hT-23" value="Amazon RDS&lt;br&gt;" style="sketch=0;points=[[0,0,0],[0.25,0,0],[0.5,0,0],[0.75,0,0],[1,0,0],[0,1,0],[0.25,1,0],[0.5,1,0],[0.75,1,0],[1,1,0],[0,0.25,0],[0,0.5,0],[0,0.75,0],[1,0.25,0],[1,0.5,0],[1,0.75,0]];outlineConnect=0;fontColor=#232F3E;gradientColor=#4D72F3;gradientDirection=north;fillColor=#3334B9;strokeColor=#ffffff;dashed=0;verticalLabelPosition=bottom;verticalAlign=top;align=center;html=1;fontSize=12;fontStyle=0;aspect=fixed;shape=mxgraph.aws4.resourceIcon;resIcon=mxgraph.aws4.rds;" vertex="1" parent="1">
          <mxGeometry x="104.5" y="544.5" width="78" height="78" as="geometry" />
        </mxCell>
        <mxCell id="O3rHJ_TYyN_P90yvB4hT-25" value="Amazon Web Service" style="outlineConnect=0;dashed=0;verticalLabelPosition=bottom;verticalAlign=top;align=center;html=1;shape=mxgraph.aws3.cloud_2;fillColor=#F58534;gradientColor=none;" vertex="1" parent="1">
          <mxGeometry x="470" y="488" width="75" height="75" as="geometry" />
        </mxCell>
        <mxCell id="UEzPUAAOIrF-is8g5C7q-116" value="Amazon S3" style="outlineConnect=0;fontColor=#232F3E;gradientColor=#60A337;gradientDirection=north;fillColor=#277116;strokeColor=#ffffff;dashed=0;verticalLabelPosition=bottom;verticalAlign=top;align=center;html=1;fontSize=12;fontStyle=0;aspect=fixed;shape=mxgraph.aws4.resourceIcon;resIcon=mxgraph.aws4.s3;labelBackgroundColor=#ffffff;" parent="1" vertex="1">
          <mxGeometry x="104.50000000000023" y="730" width="78" height="78" as="geometry" />
        </mxCell>
        <mxCell id="O3rHJ_TYyN_P90yvB4hT-1" value="Amazon EC2&lt;br&gt;" style="outlineConnect=0;dashed=0;verticalLabelPosition=bottom;verticalAlign=top;align=center;html=1;shape=mxgraph.aws3.ec2;fillColor=#F58534;gradientColor=none;" vertex="1" parent="1">
          <mxGeometry x="104.5" y="230" width="76.5" height="93" as="geometry" />
        </mxCell>
        <mxCell id="O3rHJ_TYyN_P90yvB4hT-29" style="edgeStyle=orthogonalEdgeStyle;rounded=0;orthogonalLoop=1;jettySize=auto;html=1;startArrow=open;startFill=0;endArrow=open;endFill=0;strokeWidth=2;strokeColor=#808080;" edge="1" parent="1" source="O3rHJ_TYyN_P90yvB4hT-25" target="UEzPUAAOIrF-is8g5C7q-113">
          <mxGeometry relative="1" as="geometry">
            <Array as="points">
              <mxPoint x="430" y="526" />
              <mxPoint x="430" y="460" />
              <mxPoint x="240" y="460" />
              <mxPoint x="240" y="430" />
            </Array>
            <mxPoint x="-40" y="514" as="sourcePoint" />
            <mxPoint x="114.5" y="284.5" as="targetPoint" />
          </mxGeometry>
        </mxCell>
        <mxCell id="O3rHJ_TYyN_P90yvB4hT-31" style="edgeStyle=orthogonalEdgeStyle;rounded=0;orthogonalLoop=1;jettySize=auto;html=1;startArrow=open;startFill=0;endArrow=open;endFill=0;strokeWidth=2;strokeColor=#808080;" edge="1" parent="1" source="O3rHJ_TYyN_P90yvB4hT-25">
          <mxGeometry relative="1" as="geometry">
            <Array as="points">
              <mxPoint x="240" y="560" />
              <mxPoint x="240" y="590" />
            </Array>
            <mxPoint x="405" y="530" as="sourcePoint" />
            <mxPoint x="190" y="590" as="targetPoint" />
          </mxGeometry>
        </mxCell>
      </root>
    </mxGraphModel>
  </diagram>
</mxfile>
